<?xml version="1.0" standalone="no"?>
<!DOCTYPE svg PUBLIC "-//W3C//DTD SVG 20010904//EN"
 "http://www.w3.org/TR/2001/REC-SVG-20010904/DTD/svg10.dtd">
<svg version="1.0" xmlns="http://www.w3.org/2000/svg"
 width="386.000000pt" height="386.000000pt" viewBox="0 0 386.000000 386.000000"
 preserveAspectRatio="xMidYMid meet">
<metadata>
Created by potrace 1.14, written by Peter Selinger 2001-2017
</metadata>
<g transform="translate(0.000000,386.000000) scale(0.100000,-0.100000)"
fill="#000000" stroke="none">
<path d="M26 2923 c1 -208 2 -381 3 -385 0 -4 56 -7 124 -7 67 0 131 0 142 0
20 -1 20 -7 19 -588 -1 -324 -2 -590 -3 -593 0 -3 -65 -5 -143 -5 l-143 0 0
-378 c0 -329 2 -380 15 -386 19 -8 1408 -6 1417 2 5 5 8 670 4 747 -1 13 -23
15 -143 15 -79 -1 -148 0 -154 2 -8 3 -11 112 -11 384 0 209 1 378 2 377 2 -2
67 -91 146 -198 78 -107 164 -224 190 -260 26 -36 120 -164 208 -285 88 -121
164 -224 169 -230 4 -5 20 -27 36 -47 l28 -37 36 49 c21 27 69 93 107 146 39
53 136 187 218 298 81 110 174 237 206 281 32 44 92 127 135 184 l76 104 0
-381 c0 -298 -3 -382 -12 -383 -7 -1 -76 -2 -153 -3 l-140 -1 -3 -382 c-1
-211 1 -383 5 -384 5 0 326 -1 716 -2 621 -2 708 0 711 13 5 20 6 709 1 735
-4 20 -11 21 -132 20 -70 -1 -135 0 -143 2 -13 4 -15 78 -15 594 l0 589 55 1
c30 0 96 0 146 0 l91 -1 -1 383 -1 382 -565 2 -565 3 -225 -312 c-124 -171
-245 -339 -270 -373 -52 -72 -159 -220 -230 -318 l-48 -67 -23 32 c-13 18 -27
38 -32 43 -10 12 -436 601 -486 671 -20 28 -81 113 -135 188 l-100 136 -565 0
-566 0 1 -377z"/>
</g>
</svg>
